<?xml version="1.0" encoding="utf-8"?>
<svg viewBox="0 0 2560 1440" xmlns="http://www.w3.org/2000/svg">
  <g transform="matrix(0.10000000149011612, 0, 0.002452000044286251, -0.10000000149011612, -179.87953186035156, 1417.198486328125)" fill="#000000" stroke="none" style="">
    <path d="M2370 6835 c0 -1543 3 -2805 8 -2805 12 0 835 110 859 116 l23 4 2 1494 3 1494 499 -1435 500 -1435 25 5 c14 3 222 26 461 52 239 25 445 48 458 51 l22 4 0 2630 0 2630 -440 0 -440 0 -2 -1571 -3 -1571 -566 1569 -566 1568 -421 3 -422 2 0 -2805z" style="fill: rgb(229, 9, 20);"/>
    <path d="M6070 7050 c0 -1687 3 -2590 10 -2590 5 0 137 11 292 25 622 54 2008 155 2138 155 7 0 10 139 10 439 l0 439 -42 -4 c-24 -2 -160 -11 -303 -19 -292 -18 -1057 -71 -1152 -81 l-63 -6 0 649 0 650 407 6 c223 4 489 7 590 7 l183 0 0 436 0 436 -590 -4 -590 -4 0 583 0 583 780 0 780 0 0 445 0 445 -1225 0 -1225 0 0 -2590z" style="fill: rgb(229, 9, 20);"/>
    <path d="M9070 9195 l0 -445 460 0 460 0 0 -2021 0 -2022 118 7 c64 3 212 8 327 11 116 3 261 8 323 11 l112 6 0 2004 0 2004 460 0 460 0 0 445 0 445 -1360 0 -1360 0 0 -445z" style="fill: rgb(229, 9, 20);"/>
    <path d="M12350 7200 l0 -2440 440 0 440 0 0 1000 0 1000 595 0 595 0 0 435 0 435 -595 0 -595 0 0 560 0 560 790 0 790 0 0 445 0 445 -1230 0 -1230 0 0 -2440z" style="fill: rgb(229, 9, 20);"/>
    <path d="M15360 7181 l0 -2459 113 -6 c61 -3 281 -13 487 -21 447 -18 1018 -48 1445 -75 171 -11 318 -20 328 -20 16 0 17 27 17 435 l0 435 -22 4 c-27 6 -602 40 -1033 61 -165 8 -333 18 -372 21 l-73 6 0 2039 0 2039 -445 0 -445 0 0 -2459z" style="fill: rgb(229, 9, 20);"/>
    <path d="M18470 7095 c0 -2028 3 -2546 13 -2549 6 -2 197 -18 422 -36 226 -17 418 -34 428 -36 16 -5 17 123 17 2580 l0 2586 -440 0 -440 0 0 -2545z" style="fill: rgb(229, 9, 20);"/>
    <path d="M20090 9635 c0 -2 229 -596 510 -1320 l510 -1315 -555 -1286 c-305 -707 -555 -1289 -555 -1293 0 -5 30 -11 68 -15 37 -3 244 -25 460 -48 225 -23 397 -37 402 -32 5 5 149 335 321 734 171 399 315 728 318 732 4 4 130 -311 280 -700 151 -389 294 -757 318 -818 l44 -111 92 -12 c51 -6 276 -36 500 -67 225 -31 411 -53 414 -51 2 3 -252 668 -566 1477 l-571 1472 566 1311 c312 722 569 1320 571 1330 5 16 -21 17 -483 15 l-488 -3 -311 -723 c-172 -397 -314 -724 -316 -726 -2 -2 -131 323 -286 722 l-281 727 -481 3 c-265 1 -481 0 -481 -3z" style="fill: rgb(229, 9, 20);"/>
  </g>
  <path d="M 2222.835 453.27 C 2222.83 453.487 2244.274 518.09 2270.599 596.834 L 2318.374 739.855 L 2259.721 879.72 C 2227.487 956.614 2201.06 1019.913 2201.05 1020.348 C 2201.038 1020.892 2204.024 1021.544 2207.814 1021.979 C 2211.506 1022.304 2232.152 1024.699 2253.696 1027.199 C 2276.14 1029.701 2293.305 1031.224 2293.818 1030.68 C 2294.33 1030.136 2309.539 994.245 2327.717 950.85 C 2345.796 907.455 2361.002 871.672 2361.312 871.236 C 2361.722 870.802 2373.55 905.061 2387.596 947.37 C 2401.742 989.677 2415.14 1029.701 2417.39 1036.336 L 2421.518 1048.407 L 2430.688 1049.713 C 2435.774 1050.365 2458.2 1053.628 2480.524 1057 C 2502.948 1060.371 2521.494 1062.764 2521.799 1062.547 C 2522.006 1062.22 2498.237 989.895 2468.821 901.907 L 2415.33 741.811 L 2475.145 599.227 C 2508.115 520.7 2535.281 455.663 2535.506 454.575 C 2536.045 452.835 2533.447 452.727 2487.243 452.943 L 2438.435 453.27 L 2405.562 531.903 C 2387.389 575.083 2372.387 610.646 2372.182 610.864 C 2371.977 611.08 2359.874 575.734 2345.353 532.338 L 2319.035 453.27 L 2270.943 452.943 C 2244.445 452.835 2222.843 452.943 2222.835 453.27 Z" style="fill: rgb(229, 9, 20);"/>
</svg>